# xmcd
#
# Track frame offsets: 
#        150
#        14985
#        29552
#        40547
#        55512
#        69300
#        86860
#        101427
#        112510
#        128797
#        142407
#        157005
#        171427
#        188095
#
# Disc length: 2698 seconds
#
# Revision: 0
# Processed by: cddbd v1.4PL0 Copyright (c) Steve Scherf et al.
# Submitted via: ExactAudioCopy v0.90b4
#
DISCID=bf0a880e
DTITLE=Dave Ray - Snake Eyes
DYEAR=1997
DGENRE=Blues
TTITLE0=So Glad You're Mine
TTITLE1=Junco Partner
TTITLE2=I Love the Life I Live
TTITLE3=Tomorrow Night
TTITLE4=One-Room Country Shack
TTITLE5=My Mind is Trying to Leave Me
TTITLE6=Down in the Bottom
TTITLE7=Coal Man Blues
TTITLE8=I'm Sinking
TTITLE9=Person-To-Person
TTITLE10=Kiddeo
TTITLE11=Blow Wind Blow
TTITLE12=Spyglass Blues
TTITLE13=If it's Really Gotta Be This Way
EXTD=
EXTT0=
EXTT1=
EXTT2=
EXTT3=
EXTT4=
EXTT5=
EXTT6=
EXTT7=
EXTT8=
EXTT9=
EXTT10=
EXTT11=
EXTT12=
EXTT13=
PLAYORDER=
